<?xml version="1.0" standalone="no"?><!DOCTYPE svg PUBLIC "-//W3C//DTD SVG 1.1//EN" "http://www.w3.org/Graphics/SVG/1.1/DTD/svg11.dtd"><svg t="1558144353512" class="icon" style="" viewBox="0 0 1024 1024" version="1.1" xmlns="http://www.w3.org/2000/svg" p-id="4883" xmlns:xlink="http://www.w3.org/1999/xlink" width="200" height="200"><defs><style type="text/css"></style></defs><path d="M375.466667 972.8c-58.026667 0-102.4-44.373333-102.4-102.4s44.373333-102.4 102.4-102.4 102.4 44.373333 102.4 102.4-44.373333 102.4-102.4 102.4z m0-170.666667c-37.546667 0-68.266667 30.72-68.266667 68.266667s30.72 68.266667 68.266667 68.266667 68.266667-30.72 68.266666-68.266667-30.72-68.266667-68.266666-68.266667zM819.2 972.8c-58.026667 0-102.4-44.373333-102.4-102.4s44.373333-102.4 102.4-102.4 102.4 44.373333 102.4 102.4-44.373333 102.4-102.4 102.4z m0-170.666667c-37.546667 0-68.266667 30.72-68.266667 68.266667s30.72 68.266667 68.266667 68.266667 68.266667-30.72 68.266667-68.266667-30.72-68.266667-68.266667-68.266667zM870.4 733.866667H378.88c-68.266667 0-129.706667-51.2-143.36-119.466667L129.706667 85.333333H17.066667C6.826667 85.333333 0 78.506667 0 68.266667s6.826667-17.066667 17.066667-17.066667h129.706666c6.826667 0 13.653333 6.826667 17.066667 13.653333l105.813333 542.72c10.24 51.2 54.613333 92.16 109.226667 92.16h491.52c10.24 0 17.066667 6.826667 17.066667 17.066667s-6.826667 17.066667-17.066667 17.066667z" fill="#B2B2B2" p-id="4884"></path><path d="M273.066667 631.466667c-6.826667 0-17.066667-6.826667-17.066667-13.653334 0-10.24 6.826667-17.066667 13.653333-20.48l634.88-81.92 78.506667-293.546666H187.733333c-10.24 0-17.066667-6.826667-17.066666-17.066667s6.826667-17.066667 17.066666-17.066667h819.2c6.826667 0 10.24 3.413333 13.653334 6.826667 3.413333 3.413333 3.413333 10.24 3.413333 13.653333l-85.333333 327.68c-3.413333 6.826667-6.826667 10.24-13.653334 13.653334L273.066667 631.466667c3.413333 0 0 0 0 0z" fill="#B2B2B2" p-id="4885"></path></svg>