<?xml version="1.0" standalone="no"?><!DOCTYPE svg PUBLIC "-//W3C//DTD SVG 1.1//EN" "http://www.w3.org/Graphics/SVG/1.1/DTD/svg11.dtd"><svg t="1558149996966" class="icon" style="" viewBox="0 0 1025 1024" version="1.1" xmlns="http://www.w3.org/2000/svg" p-id="10021" xmlns:xlink="http://www.w3.org/1999/xlink" width="200.1953125" height="200"><defs><style type="text/css"></style></defs><path d="M191.929438 95.964719 64.352811 95.964719C28.789416 95.964719 0 124.754135 0 160.31753s28.789416 63.788313 64.352811 63.788313l128.141125 0c35.563396 0 63.788313-28.789416 63.788313-63.788313S227.492834 95.964719 191.929438 95.964719z" p-id="10022" fill="#96C61C"></path><path d="M384.987872 224.105843l575.788313 0c35.563396 0 63.788313-28.789416 63.788313-63.788313s-28.789416-63.788313-63.788313-63.788313l-575.788313 0c-35.563396 0-63.788313 28.789416-63.788313 63.788313S349.424476 224.105843 384.987872 224.105843z" p-id="10023" fill="#96C61C"></path><path d="M191.929438 448.211687 64.352811 448.211687C28.789416 448.211687 0 477.001103 0 512c0 34.998897 28.789416 63.788313 63.788313 63.788313L191.929438 575.788313c35.563396 0 63.788313-28.789416 63.788313-63.788313C255.717751 477.001103 227.492834 448.211687 191.929438 448.211687z" p-id="10024" fill="#96C61C"></path><path d="M960.211687 448.211687l-575.788313 0c-35.563396 0-63.788313 28.789416-63.788313 63.788313 0 34.998897 28.789416 63.788313 63.788313 63.788313l575.788313 0c35.563396 0 63.788313-28.789416 63.788313-63.788313C1024 477.001103 995.775083 448.211687 960.211687 448.211687z" p-id="10025" fill="#96C61C"></path><path d="M191.364939 800.458655 63.788313 800.458655C28.224917 800.458655 0 829.248071 0 864.246968c0 34.998897 28.789416 63.788313 63.788313 63.788313L191.929438 928.035281c35.563396 0 63.788313-28.789416 63.788313-63.788313C255.717751 829.248071 226.928335 800.458655 191.364939 800.458655z" p-id="10026" fill="#96C61C"></path><path d="M960.211687 800.458655l-575.788313 0c-35.563396 0-63.788313 28.789416-63.788313 63.788313 0 34.998897 28.789416 63.788313 63.788313 63.788313l575.788313 0c35.563396 0 63.788313-28.789416 63.788313-63.788313C1024 829.248071 995.775083 800.458655 960.211687 800.458655z" p-id="10027" fill="#96C61C"></path></svg>