<?xml version="1.0" standalone="no"?><!DOCTYPE svg PUBLIC "-//W3C//DTD SVG 1.1//EN" "http://www.w3.org/Graphics/SVG/1.1/DTD/svg11.dtd"><svg t="1558150462129" class="icon" style="" viewBox="0 0 1024 1024" version="1.1" xmlns="http://www.w3.org/2000/svg" p-id="12199" xmlns:xlink="http://www.w3.org/1999/xlink" width="200" height="200"><defs><style type="text/css"></style></defs><path d="M748.039004 1024 275.960996 1024C219.28362 1024 152.8188 978.151666 152.8188 921.582041L152.8188 225.272817C152.8188 168.72115 219.28362 122.872817 275.960996 122.872817L338.690424 122.872817C351.638583 110.229954 369.309856 102.4 388.848825 102.4L397.720379 102.4C403.574886 44.968362 451.632129 0 510.733918 0 569.817748 0 617.857033 44.968362 623.729498 102.4L635.151175 102.4C654.708102 102.4 672.379376 110.229954 685.327534 122.872817L748.039004 122.872817C804.71638 122.872817 871.1812 168.72115 871.1812 225.272817L871.1812 921.582041C871.1812 978.151666 804.71638 1024 748.039004 1024ZM510.733918 55.833322C478.570046 55.833322 452.512101 81.83739 452.512101 113.91147 452.512101 146.003508 478.570046 172.007576 510.733918 172.007576 542.879832 172.007576 568.937776 146.003508 568.937776 113.91147 568.937776 81.83739 542.879832 55.833322 510.733918 55.833322ZM809.619081 266.236408C809.619081 209.684742 763.662995 163.836408 706.985619 163.836408L705.961978 163.836408C706.446861 167.212627 706.985619 170.570887 706.985619 174.072817 706.985619 213.671554 674.821747 245.745633 635.151175 245.745633L388.848825 245.745633C349.178253 245.745633 317.014381 213.671554 317.014381 174.072817 317.014381 170.570887 317.571098 167.212627 318.05598 163.836408L317.014381 163.836408C260.337005 163.836408 214.398878 209.684742 214.398878 266.236408L214.398878 860.163592C214.398878 916.715258 260.337005 962.563592 317.014381 962.563592L706.985619 962.563592C763.662995 962.563592 809.619081 916.715258 809.619081 860.163592L809.619081 266.236408ZM717.257945 696.309225 306.760014 696.309225C289.753209 696.309225 275.960996 682.570887 275.960996 665.6 275.960996 648.629113 289.753209 634.872817 306.760014 634.872817L717.257945 634.872817C734.264749 634.872817 748.039004 648.629113 748.039004 665.6 748.039004 682.570887 734.264749 696.309225 717.257945 696.309225ZM717.257945 593.909225 306.760014 593.909225C289.753209 593.909225 275.960996 580.170887 275.960996 563.182041 275.960996 546.229113 289.753209 532.472817 306.760014 532.472817L717.257945 532.472817C734.264749 532.472817 748.039004 546.229113 748.039004 563.182041 748.039004 580.170887 734.264749 593.909225 717.257945 593.909225ZM717.257945 491.509225 306.760014 491.509225C289.753209 491.509225 275.960996 477.752929 275.960996 460.8 275.960996 443.829113 289.753209 430.072817 306.760014 430.072817L717.257945 430.072817C734.264749 430.072817 748.039004 443.829113 748.039004 460.8 748.039004 477.752929 734.264749 491.509225 717.257945 491.509225ZM717.257945 389.109225 306.760014 389.109225C289.753209 389.109225 275.960996 375.352929 275.960996 358.4 275.960996 341.429113 289.753209 327.672817 306.760014 327.672817L717.257945 327.672817C734.264749 327.672817 748.039004 341.429113 748.039004 358.4 748.039004 375.352929 734.264749 389.109225 717.257945 389.109225ZM357.852262 882.342476C357.852262 882.342476 401.779025 776.153209 471.045388 740.738828 469.33932 766.024553 462.586882 787.952017 474.421606 814.925851 443.999719 821.66033 381.503753 897.517503 361.228481 934.584076 332.512662 899.205612 298.732515 872.231778 275.081024 863.80919L330.824553 830.082918 357.852262 882.342476Z" p-id="12200" fill="#B6B6B6"></path></svg>