<?xml version="1.0" standalone="no"?><!DOCTYPE svg PUBLIC "-//W3C//DTD SVG 1.1//EN" "http://www.w3.org/Graphics/SVG/1.1/DTD/svg11.dtd"><svg t="1558179091232" class="icon" style="" viewBox="0 0 1024 1024" version="1.1" xmlns="http://www.w3.org/2000/svg" p-id="6750" xmlns:xlink="http://www.w3.org/1999/xlink" width="200" height="200"><defs><style type="text/css"></style></defs><path d="M512 65.945945c-246.361991 0-446.060195 199.698205-446.060195 446.060195s199.698205 446.048939 446.060195 446.048939c246.360967 0 446.059172-199.686948 446.059172-446.048939S758.361991 65.945945 512 65.945945L512 65.945945zM756.604974 385.847835 456.943057 685.480077c-6.520507 6.563486-15.195074 9.780761-23.813359 9.739828-8.56098 0.040932-17.293875-3.176342-23.813359-9.739828L267.394003 543.558763c-13.039991-13.011338-13.039991-34.302247 0-47.313585 13.041014-13.014408 34.305317-13.014408 47.346331 0l118.389364 118.430296 276.129968-276.129968c13.041014-13.011338 34.305317-13.011338 47.346331 0C769.588683 351.545588 769.588683 372.836497 756.604974 385.847835L756.604974 385.847835z" p-id="6751" fill="#FE6800"></path></svg>